<svg xmlns="http://www.w3.org/2000/svg" xmlns:xlink="http://www.w3.org/1999/xlink" width="37" height="45" viewBox="0 0 37 45"><defs><path id="a" d="M68.29 45.69l-.01.06v.17l-.01.15v.08l-.02.15-.01.08-.03.15-.01.08a4.5 4.5 0 0 1-2.93 3.32 4.12 4.12 0 0 1-1.37.23h-4.4l-.43.01a15.53 15.53 0 0 0-5.87 1.28c-.54.25-1.04.54-1.48.87l-.17.13-.1.08a.27.27 0 0 0-.06.05l-.16.14-.16.14c-.21.19-.4.4-.59.62a.14.14 0 0 1-.12.06.12.12 0 0 1-.09-.04l-.02-.01a7.95 7.95 0 0 0-2.72-2.04c-.52-.24-1.06-.45-1.6-.61l-.15-.04-.27-.08-.15-.04-.27-.07-.11-.02-.31-.07-.43-.08a15.05 15.05 0 0 0-2.58-.27l-.43-.01H36.79l-.19-.01h-.01l-.22-.02a4.53 4.53 0 0 1-3.55-2.65 4.41 4.41 0 0 1-.35-1.8l-.02-34.97c0-.14.12-.26.26-.26h35.33c.14 0 .26.12.26.26zM54.92 10H32v35.74a4.9 4.9 0 0 0 4.91 4.89h4.26c.6 0 2.18.04 3.87.45 2.63.64 4.47 1.9 5.33 3.65.84-1.75 2.67-3.01 5.31-3.65 1.7-.41 3.3-.45 3.91-.45h4.25a4.9 4.9 0 0 0 4.91-4.89V10H54.92z"/><path id="b" d="M43.23 21.59v-.16c.01-.11 0-.22-.01-.37l-.04-.37-.02-.19-.04-.18-.07-.36-.1-.37-.05-.17-.01-.04-.05-.14a3.62 3.62 0 0 0-.13-.35l-.07-.17-.07-.17-.17-.33a.9.9 0 0 0-.09-.16l-.09-.15-.02-.03-.09-.12-.03-.04a2.05 2.05 0 0 0-.32-.36l-.02-.02-.11-.09-.07-.06-.04-.02a.85.85 0 0 0-.05-.04l-.05-.03-.07-.03c-.04-.03-.08-.04-.12-.05l-.04-.02.02.1.02.22.01.06.01.16.03.44v.44l-.01.23-.01.14-.01.08-.03.22-.01.07-.03.16-.01.07-.04.15-.01.04-.05.18-.08.22-.05.14-.04.07c-.03.09-.11.14-.21.14l-.08-.01a2.86 2.86 0 0 1-.27-.12c-.09-.03-.17-.08-.26-.13l-.25-.14-.24-.16c-.22-.17-.45-.35-.71-.59l-.03.02-.02.02-.12.11-.03.02-.04.04-.14.16-.04.05-.04.06-.09.14-.03.06-.07.12c-.06.12-.1.25-.14.4l-.02.07-.03.13-.01.08-.02.13v.08L38 21v.21l.02.22.03.21.02.13a.3.3 0 0 1 .02.08l.03.13.03.08c.04.15.08.29.13.41l.08.19.05.12.1.19.05.1.11.19.02.03.1.15.03.04.1.14.03.04.1.13.02.03.12.14.16.16.08.07.08.07c.1.09.21.17.35.26l.2.09 3.1-2.97a.18.18 0 0 1 .07-.05"/><path id="c" d="M38.6 43.45l.42-.62-.02-.08a5.54 5.54 0 0 1-.18-.59 2.89 2.89 0 0 1-.08-.91 1.54 1.54 0 0 1 .48-.99c.15-.12.31-.23.48-.3l.1-.05.14-.05.09-.03.16-.04.09-.02.16-.03.23-.04.09-.01.34-.03h.06l.13-.01h.49l-.02-.07-.1-.49-.02-.09-.25.02-.3.02-.08.01-.37.04-.12.02-.18.03-.1.01-.05.01-.09.02-.31.07-.15.04-.06.01-.09.03-.24.08-.23.1-.07.03-.22.13a1.5 1.5 0 0 0-.48.45c-.12.17-.2.38-.23.6-.03.2-.03.42 0 .67a5.38 5.38 0 0 0 .28 1.16l.01.03.21.65.08.22"/><path id="d" d="M47.09 33.73l.01.03.51.06 1.08-1.24-.53-.58L47 33.4l.06.23.03.1"/><path id="e" d="M46.94 27.29l-.04.03-.06.03-.08.05-.06.04-.2.16v.01c-.07.05-.12.12-.18.19l-.05.06a.35.35 0 0 0-.06.09l-.04.05-.01.03c-.02.02-.03.03-.03.05l-.05.07-.03.07-.05.1-.07.17a3.7 3.7 0 0 0-.18.75 6.95 6.95 0 0 0-.02 1.66 19.74 19.74 0 0 0 .75 3.41 15 15 0 0 1 .45 1.67c.06.27.1.55.11.83.02.33-.01.59-.08.83-.08.27-.26.51-.47.67a2 2 0 0 1-.69.29 5.74 5.74 0 0 1-1.23.12h-.01l-.61.01H43a59.08 59.08 0 0 1 .12.98l.32.01h.36c.33 0 .64-.01.96-.03.29-.02.74-.06 1.22-.17l.11-.02.05-.02.06-.01.11-.03.09-.04a.92.92 0 0 0 .23-.09c.25-.11.44-.23.6-.38.17-.17.31-.38.4-.62.08-.22.13-.48.15-.78a7.23 7.23 0 0 0-.16-1.71c-.1-.51-.23-1.06-.42-1.77l-.24-.87-.02-.06-.23-.82c-.14-.52-.29-1.14-.35-1.77a4.3 4.3 0 0 1 .02-.89c.04-.33.14-.61.29-.84.16-.25.39-.45.66-.57.23-.11.49-.17.77-.19l.29-.01c.38 0 .73.05 1.02.11a8.58 8.58 0 0 1 1.26.34l-.03-.06-.19-.38a2.6 2.6 0 0 1-.14-.29l-.04-.09-.17-.39-.41-.1-.2-.04-.13-.03a7.5 7.5 0 0 0-.9-.1h-.1a3.53 3.53 0 0 0-1.24.21l-.08.04a.3.3 0 0 0-.1.04"/><path id="f" d="M41 25.63l4.06 3.7 2.21-2.3L43.75 23z"/><path id="g" d="M47.63 29c-.2.09-.37.23-.49.42-.06.08-.1.17-.14.27l3.83 4.01c.21-.04.38-.1.54-.17l.16-.09L47.64 29h-.01"/><path id="h" d="M36.01 22.01l.01.07v.04l.01.05.02.18.02.07.03.16c.04.15.08.29.15.45l.03.08.06.14.04.07.07.14.04.07.08.13.05.07.09.12.05.07.09.12.06.07.1.11.06.06.11.1.07.06.11.1a.3.3 0 0 1 .07.05l.12.09.08.05.12.08.43.21.07.02.15.06.03.01.2.05.12.02.07.01.08.01.08.01H39.15c.13 0 .26-.01.41-.04l.09-.02.14-.04.14-.05a.69.69 0 0 0 .08-.03l.13-.07.07-.03a3.07 3.07 0 0 1-.6-.36l-.09-.08-.08-.08c-.07-.05-.12-.11-.17-.16l-.14-.15-.02-.02-.12-.14-.03-.04-.11-.15-.03-.04-.11-.16-.02-.03-.13-.2-.06-.09-.11-.21-.06-.12-.09-.2c-.05-.13-.11-.27-.16-.44l-.02-.08-.04-.14a.3.3 0 0 1-.02-.08l-.04-.15-.04-.23-.02-.24-.02-.24.01-.16v-.08l.02-.16.01-.08c0-.06.01-.11.03-.16l.01-.08c.04-.17.09-.32.16-.47l.07-.16a.22.22 0 0 0 .03-.05l.11-.19.05-.06.04-.07.16-.19.06-.06.02-.03.13-.12.04-.03.2-.17a.24.24 0 0 1 .14-.05.2.2 0 0 1 .15.06l.01.01a7.89 7.89 0 0 0 1.03.83l.22.13a4.85 4.85 0 0 1 .26.13.84.84 0 0 0 .05-.17l.05-.15.01-.04.03-.13.01-.07.03-.14.01-.06.02-.21.01-.07.01-.13.01-.21.01-.21-.01-.21-.02-.41-.02-.15v-.06l-.03-.21-.01-.07-.01-.14-.04-.22a.23.23 0 0 1 .19-.26h.07l.07.01.15.03.1.03.06.02.08.03.17.08.09.05.06.04.06.04.06.05.08.06.13.13.02.02a2.86 2.86 0 0 1 .35.43l.03.04.09.15.02.02.1.17.09.18.16.35.07.18.07.19.12.37.04.15.01.04.05.18.08.38.07.38.03.19.02.2.02.39v.38l.13-.18c.12-.18.22-.36.29-.53.16-.38.24-.78.21-1.17a3 3 0 0 0-.31-1.15 5.5 5.5 0 0 0-.65-1.04 13.65 13.65 0 0 0-2.08-2.11 27.87 27.87 0 0 1-1.04-.99 2.32 2.32 0 0 1-.22-.25l-.08-.11c-.07.04-.14.08-.19.13-.1.1-.19.21-.25.35-.11.24-.17.53-.18.93-.01.34.02.68.04 1.02l.01.06.02.48c.01.09 0 .19-.01.3-.01.05-.02.11-.05.18a.42.42 0 0 1-.19.21l-.01.01a.19.19 0 0 1-.07.02h-.05l-.1.01h-.03l-.14-.01-.02-.01-.06-.01-.07-.01-.1-.04-.04-.02a.46.46 0 0 1-.14-.07l-.04-.02-.09-.06-.03-.02-.08-.06-.02-.02-.09-.08-.02-.02-.07-.07-.03-.03-.06-.07a1.4 1.4 0 0 1-.17-.2l-.01-.01-.15-.19-.02.01-.16.19a.67.67 0 0 0-.07.11l-.02.02-.02.04-.06.11-.02.06-.05.12-.01.02-.03.1-.01.04-.03.09-.05.27v.05l-.01.08-.01.14-.01.14.01.14.01.28.02.28.04.28.05.28.11.57.02.08c.03.16.07.33.09.51a.23.23 0 0 1-.09.22l-.14.1a.75.75 0 0 1-.18.08.53.53 0 0 1-.2.05l-.08.01h-.06l-.08-.01-.02-.01-.07-.01-.02-.01-.07-.02-.03-.01-.06-.02-.02-.01-.05-.02-.03-.01-.02.1-.02.08-.02.15-.01.08-.01.22-.01.13v.11z"/><path id="i" d="M51.6 29.18l-.2-.08-.29-.1L50 30.33l.56.59 1.23-1.4-.16-.29z"/><path id="j" d="M42.11 40.16l-.03-.14-.29-.02h-.11l-3.61 5.06-.01.01-.02.03c-.07.12-.05.29.06.38.05.05.12.08.19.09h.03c.06 0 .12-.02.17-.05l.04-.03h.01l.01-.01.02-.03.02-.02 3.57-5.01-.05-.26"/><path id="k" d="M46.44 35.4l-.1-.33-.33-.05-.13-.02L43 38.46l.06.41.51-.01z"/><path id="l" d="M51.09 27.54l.05.09.13.28.19.36.1.19.13.23.07.02-.02.05.14.24c.32.56.56 1.06.74 1.53.11.29.19.56.24.82.06.3.08.59.05.85-.03.32-.14.6-.3.82-.16.21-.38.39-.65.52-.21.1-.45.18-.73.23a4.7 4.7 0 0 1-.68.08l-.45.01a13.5 13.5 0 0 1-1.62-.1l-.48-.05.07.27.11.42.1.01.58.05.9.03h.09c.38 0 .73-.01 1.07-.05a6 6 0 0 0 1.33-.27c.24-.08.46-.18.66-.29a2.44 2.44 0 0 0 .8-.76 2.2 2.2 0 0 0 .3-1.11c.01-.25-.01-.52-.06-.81a7.63 7.63 0 0 0-.89-2.37c-.12-.24-.25-.47-.41-.74l-.08-.13-.13-.22-.08-.13-.13-.23a6.2 6.2 0 0 1-.59-1.49 3.41 3.41 0 0 1-.07-.76 2.05 2.05 0 0 1 .93-1.67c.32-.22.62-.34.85-.42l.57-.16-.02-.05-.03-.1-.01-.03v-.04a.36.36 0 0 1-.02-.1l-.01-.14v-.04a.85.85 0 0 0-.32-.26 1.6 1.6 0 0 0-.37-.12l-.2.1-.29.15c-.18.1-.44.25-.74.46-.34.25-.6.49-.81.75l-.14.18a.3.3 0 0 1-.05.07l-.03.06-.12.21a2.65 2.65 0 0 0-.28 1.33 5.3 5.3 0 0 0 .61 2.23"/><path id="m" d="M43.23 39.88l-.24-1.51-.01-.07c-.08-.47-.16-.95-.2-1.42a4.5 4.5 0 0 1 .01-.75c.04-.29.12-.54.25-.73.17-.25.41-.4.58-.48.22-.1.45-.15.64-.18.24-.04.48-.05.76-.05h.34l.83.07.3.04.11.01-.23-.76h-.06l-.47-.03-.35-.01-.2-.01h-.26c-.35 0-.65.02-.94.05-.31.04-.72.1-1.11.28-.19.08-.36.2-.51.33-.14.13-.26.31-.36.51l-.07.15-.05.16-.03.11-.01.05-.01.06a.36.36 0 0 0-.02.1l-.01.06-.04.28v.07l-.01.11v.18c-.01.41.02.86.1 1.43.06.42.14.88.25 1.42l.04.22.1.48a7.71 7.71 0 0 1 .31 2.01v.32l-.01.11v.05l-.02.15c-.03.22-.08.41-.15.58-.08.19-.18.35-.3.49-.12.12-.25.23-.41.31-.29.15-.58.18-.8.19h-.14l-.37-.01-.06-.01-.4.59.47.06c.22.03.49.07.8.08h.06l.13.01h.05l.12-.01h.13c.21-.02.36-.05.51-.1a1.31 1.31 0 0 0 .83-.72c.09-.19.16-.39.2-.61.06-.22.08-.46.1-.68.03-.43.03-.91-.01-1.46-.03-.47-.09-.97-.16-1.52"/><path id="n" d="M57.73 26l-.04.01-.14.01-.07.01-.07-.01h-.04l-.11-.01-.04-.01v.05c-.02.19-.04.43-.11.73-.09.38-.22.71-.39.98a2.04 2.04 0 0 1-1.57.94l-.11.01H55l-.15.01h-.11l-.19-.01-.1-.01-.18-.02-.27-.04-.11-.02a3.3 3.3 0 0 1-.37-.1l-.21-.05-.31-.11.36.63.31.61.23.05.09.01.23.04.41.04h.49l.18-.02h.08l.07-.01.2-.04a2.29 2.29 0 0 0 1.04-.47 3.25 3.25 0 0 0 .79-.87l.27-.48a5.3 5.3 0 0 0 .35-.85l.08-.22.03-.09.01-.05a1.43 1.43 0 0 0-.19-.37.85.85 0 0 0-.3-.27"/><path id="o" d="M52 35.28l10.75 10.66c.05.04.11.07.17.07.07 0 .13-.03.17-.07a.25.25 0 0 0 0-.34L52.63 35c-.2.11-.41.2-.63.28"/><path id="p" d="M52.02 27.85l.13.23.07.12.02.03.33.13.12.04 4.13-4.73-.1-.11c-.08-.1-.17-.18-.27-.26a2.1 2.1 0 0 0-.3-.22l-.13-.08L52 27.82l.02.03"/><path id="q" d="M52.9 22.18c.23.12.43.29.55.49v.01c.03.05.04.1.03.15l-.01.04-.01.06-.01.09v.07l.01.03v.03l.01.06.02.07v.02l.01.02.03.07a.3.3 0 0 0 .04.08v.01l.06.08c.08.11.18.2.3.29l.19.12.01.01 1.31-1.57-.02-.06-.03-.09a1.33 1.33 0 0 1-.05-.19l-.02-.07-.02-.12-.01-.07-.02-.12-.01-.19-.01-.19v-.13V21.06l.01-.14.01-.19.01-.12.01-.07.02-.19.03-.12.04-.25.05-.27a8.3 8.3 0 0 0-1.14-1.34c-.21-.22-.44-.44-.68-.66l-.7-.64a36.76 36.76 0 0 0-1.86-1.46l-.39-.28-.39-.26-.12-.07-.05.31c-.01.09-.03.2-.03.31l-.02.32c0 .23.02.43.06.62a1.98 1.98 0 0 0 .57 1.07c.13.13.3.25.5.37.15.09.31.16.47.24l.12.06.31.17c.09.06.2.13.28.24.02.02.03.05.03.08s-.01.06-.03.08a.14.14 0 0 1-.09.03h-.04l-.01-.01c-.09-.04-.2-.06-.3-.09a6.5 6.5 0 0 0-.64-.13l-.03-.01-.29-.04c-.2-.03-.42-.06-.63-.06h-.05l-.24.01-.04.01v.01l.03.15.01.05.02.07.03.12.02.07.01.04.04.11.09.19.01.02.06.1.06.1.04.05.03.04.04.05.03.04.16.16.18.14.2.13.1.05.11.05.22.09.24.08.67.16.31.07c.03 0 .06.02.08.04.02.03.03.06.02.09 0 .06-.05.11-.11.11l-.13.02a5.5 5.5 0 0 0-.57.06c-.19.03-.43.08-.63.19-.1.04-.17.1-.22.16a.43.43 0 0 0-.09.22c-.01.08 0 .17.03.27l.03.12.14-.01.32-.03h.17a2.44 2.44 0 0 1 1.15.22"/><path id="r" d="M58.28 23.46l-.19.01-.13.01h-.2l-.06-.01-.2-.02-.1-.01-.06-.01L56 24.96l.01.01.14.17c.11.1.22.19.34.25l.09.04h.01l.08.03.08.02h.04l.07.01h.13l.06-.01.09-.03.06-.02.04-.01.07-.01a.2.2 0 0 1 .08.01h.01c.22.09.42.26.57.47.13.17.22.37.3.62a3.61 3.61 0 0 1 .16.96l.01.13.13.02h.09c.07 0 .13 0 .18-.02a.37.37 0 0 0 .2-.12c.05-.06.1-.14.13-.25.07-.21.08-.45.08-.64l-.02-.57-.01-.13c-.01-.07.05-.13.11-.14h.01c.05 0 .1.04.12.09l.11.29c.09.22.17.43.27.64l.12.21.12.21.07.1.07.09.16.17.17.16.18.13.04.02.06.04.04.02.07.03.1.05.11.03.02.01.2.05.12.03h.04l.07.01.12.02h.12l.11.01h.06v-.05c0-.09-.01-.19-.03-.28-.03-.21-.1-.42-.16-.61l-.09-.28-.01-.03-.11-.3-.12-.3-.14-.29-.01-.01c-.01-.02-.02-.05-.01-.08s.03-.06.05-.07l.06-.02.07.02c.12.06.21.16.28.24l.21.27.08.11.32.42c.15.18.3.33.45.44.16.12.35.22.54.28.18.06.38.1.6.11h.09c.17 0 .35-.02.54-.05l.31-.06.31-.09.3-.1-.09-.1a8.43 8.43 0 0 1-.32-.34l-.33-.34-.34-.33a30.17 30.17 0 0 0-2.93-2.41 9.42 9.42 0 0 0-1.51-.91l-.26.1-.24.08-.12.04-.18.05-.06.02-.13.03-.18.05a.78.78 0 0 1-.14.02l-.05.01-.07.01-.12.02z"/><path id="s" d="M56.22 22.15l.14.19.09.08.09.09a1.65 1.65 0 0 0 .89.34h.06l.17-.01.22-.06.18-.1.02-.02c-.04-.07-.09-.14-.12-.23a.98.98 0 0 1-.07-.27c-.01-.1.01-.2.05-.3a.57.57 0 0 1 .16-.23.9.9 0 0 1 .19-.16l.21-.13a.91.91 0 0 1 .13-.08c.11-.07.17-.14.18-.17v-.06a.3.3 0 0 0-.04-.11 1.54 1.54 0 0 0-.22-.27l-.27-.25-.3-.23a1.62 1.62 0 0 0-.29-.15l-.1-.02h-.01l-.04.02c-.02.01-.07.06-.14.24l-.04.12-.11.26c-.04.08-.07.15-.12.21a.8.8 0 0 1-.21.2.7.7 0 0 1-.29.09h-.06c-.07 0-.14 0-.21-.02l-.25-.08-.02.02a.84.84 0 0 0-.07.19c-.03.14-.03.3.01.46.03.14.09.29.19.44"/></defs><g transform="translate(-32 -10)"><use fill="#f5e57f" xlink:href="#a"/><use fill="#f5e57f" xlink:href="#b"/><use fill="#f5e57f" xlink:href="#c"/><use fill="#f5e57f" xlink:href="#d"/><use fill="#f5e57f" xlink:href="#e"/><use fill="#f5e57f" xlink:href="#f"/><use fill="#f5e57f" xlink:href="#g"/><use fill="#f5e57f" xlink:href="#h"/><use fill="#f5e57f" xlink:href="#i"/><use fill="#f5e57f" xlink:href="#j"/><g><use fill="#f5e57f" xlink:href="#k"/></g><g><use fill="#f5e57f" xlink:href="#l"/></g><g><use fill="#f5e57f" xlink:href="#m"/></g><g><use fill="#f5e57f" xlink:href="#n"/></g><g><use fill="#f5e57f" xlink:href="#o"/></g><g><use fill="#f5e57f" xlink:href="#p"/></g><g><use fill="#f5e57f" xlink:href="#q"/></g><g><use fill="#f5e57f" xlink:href="#r"/></g><g><use fill="#f5e57f" xlink:href="#s"/></g></g></svg>